<svg width="25" height="24" viewBox="0 0 25 24" fill="none" xmlns="http://www.w3.org/2000/svg">
<path d="M9.65978 5.51C9.47422 6.15 9.38143 6.82 9.38143 7.5C9.38143 11.58 12.8041 14.9 17.0103 14.9C17.7113 14.9 18.4021 14.81 19.0618 14.63C17.9897 17.19 15.3917 19 12.3711 19C8.39174 19 5.15463 15.86 5.15463 12C5.15463 9.07 7.02061 6.55 9.65978 5.51ZM12.3711 3C7.24741 3 3.09277 7.03 3.09277 12C3.09277 16.97 7.24741 21 12.3711 21C17.4948 21 21.6495 16.97 21.6495 12C21.6495 11.54 21.6082 11.08 21.5464 10.64C20.5361 12.01 18.8866 12.9 17.0103 12.9C13.9381 12.9 11.4433 10.48 11.4433 7.5C11.4433 5.69 12.3608 4.08 13.7732 3.1C13.3196 3.04 12.8454 3 12.3711 3Z" fill="#F5F5F5"/>
</svg>
