<svg width="28" height="28" viewBox="0 0 28 28" fill="none" xmlns="http://www.w3.org/2000/svg">
<g clip-path="url(#clip0_125_269)">
<rect x="7.00024" y="6.99963" width="14" height="14" fill="#E8E8E8"/>
<g filter="url(#filter0_d_125_269)">
<path fill-rule="evenodd" clip-rule="evenodd" d="M13.8332 1.00031C6.74571 1.00031 0.999878 6.74614 0.999878 13.8336C0.999878 20.9211 6.74571 26.667 13.8332 26.667C20.9207 26.667 26.6665 20.9211 26.6665 13.8336C26.6665 6.74614 20.9207 1.00031 13.8332 1.00031ZM14.9999 18.5003C14.9999 18.8097 14.877 19.1065 14.6582 19.3253C14.4394 19.5441 14.1426 19.667 13.8332 19.667C13.5238 19.667 13.227 19.5441 13.0083 19.3253C12.7895 19.1065 12.6665 18.8097 12.6665 18.5003V15.0003H9.16654C8.85713 15.0003 8.56038 14.8774 8.34159 14.6586C8.12279 14.4398 7.99988 14.1431 7.99988 13.8336C7.99988 13.5242 8.12279 13.2275 8.34159 13.0087C8.56038 12.7899 8.85713 12.667 9.16654 12.667H12.6665V9.16697C12.6665 8.85755 12.7895 8.56081 13.0083 8.34201C13.227 8.12322 13.5238 8.0003 13.8332 8.0003C14.1426 8.0003 14.4394 8.12322 14.6582 8.34201C14.877 8.56081 14.9999 8.85755 14.9999 9.16697V12.667H18.4999C18.8093 12.667 19.106 12.7899 19.3248 13.0087C19.5436 13.2275 19.6665 13.5242 19.6665 13.8336C19.6665 14.1431 19.5436 14.4398 19.3248 14.6586C19.106 14.8774 18.8093 15.0003 18.4999 15.0003H14.9999V18.5003Z" fill="#E52320"/>
</g>
<rect x="8" y="7" width="13" height="13" fill="#E52320"/>
<path d="M19.1248 9.49939H7.24976V10.7494H8.68726L10.8879 16.8013C10.9758 17.0422 11.1356 17.2503 11.3456 17.3975C11.5556 17.5448 11.8058 17.6239 12.0623 17.6244H17.2498V16.3744H12.0623L11.6073 15.1244H17.2498C17.4998 15.1244 17.726 14.9756 17.8241 14.7456L19.6991 10.3706C19.7402 10.2756 19.757 10.1718 19.748 10.0687C19.7389 9.96554 19.7043 9.86627 19.6474 9.77982C19.5904 9.69338 19.5128 9.62248 19.4215 9.57352C19.3303 9.52456 19.2283 9.49909 19.1248 9.49939V9.49939Z" fill="#E8D9D8"/>
<path d="M12.5625 20.125C13.0803 20.125 13.5 19.7053 13.5 19.1875C13.5 18.6697 13.0803 18.25 12.5625 18.25C12.0447 18.25 11.625 18.6697 11.625 19.1875C11.625 19.7053 12.0447 20.125 12.5625 20.125Z" fill="#E8D9D8"/>
<path d="M16.3125 20.125C16.8303 20.125 17.25 19.7053 17.25 19.1875C17.25 18.6697 16.8303 18.25 16.3125 18.25C15.7947 18.25 15.375 18.6697 15.375 19.1875C15.375 19.7053 15.7947 20.125 16.3125 20.125Z" fill="#E8D9D8"/>
</g>
<defs>
<filter id="filter0_d_125_269" x="-22.3335" y="-10.6664" width="72.3333" height="72.3334" filterUnits="userSpaceOnUse" color-interpolation-filters="sRGB">
<feFlood flood-opacity="0" result="BackgroundImageFix"/>
<feColorMatrix in="SourceAlpha" type="matrix" values="0 0 0 0 0 0 0 0 0 0 0 0 0 0 0 0 0 0 127 0" result="hardAlpha"/>
<feOffset dy="11.6667"/>
<feGaussianBlur stdDeviation="11.6667"/>
<feColorMatrix type="matrix" values="0 0 0 0 0.898039 0 0 0 0 0.137255 0 0 0 0 0.12549 0 0 0 0.25 0"/>
<feBlend mode="normal" in2="BackgroundImageFix" result="effect1_dropShadow_125_269"/>
<feBlend mode="normal" in="SourceGraphic" in2="effect1_dropShadow_125_269" result="shape"/>
</filter>
<clipPath id="clip0_125_269">
<rect width="28" height="28" fill="white"/>
</clipPath>
</defs>
</svg>
